<svg xmlns="http://www.w3.org/2000/svg" xmlns:xlink="http://www.w3.org/1999/xlink" version="1.1" id="Layer_1" x="0px" y="0px" width="550.781px" height="128.667px" viewBox="0 0 550.781 128.667" enable-background="new 0 0 550.781 128.667" xml:space="preserve"><g><path fill="#586062" d="M89.146 41.22c0 0-14.244-13.583 5.853-19.733 0 0 20.097-6.151 14.245 13.582C109.244 35.069 103.391 54.802 89.146 41.22"/><path fill="none" stroke="#586062" stroke-width="8.1" d="M89.146 41.22c0 0-14.244-13.583 5.853-19.733 0 0 20.097-6.151 14.245 13.582C109.244 35.069 103.391 54.802 89.146 41.22L89.146 41.22z"/><path fill="#586062" d="M65.857 22.232c1.226 0 2.22-4.618 2.22-10.314 0-5.696-0.994-10.314-2.22-10.314 -1.225 0-2.219 4.618-2.219 10.314C63.638 17.614 64.632 22.232 65.857 22.232"/><path fill="#586062" d="M66.872 24.568c1.133-0.468 0.291-5.116-1.88-10.382C62.82 8.92 60.141 5.03 59.008 5.497c-1.133 0.467-0.292 5.115 1.88 10.381C63.059 21.145 65.738 25.035 66.872 24.568"/><path fill="#586062" d="M64.725 24.451c1.134 0.467 3.813-3.423 5.984-8.689 2.171-5.267 3.013-9.915 1.88-10.382 -1.134-0.467-3.813 3.423-5.984 8.689C64.433 19.336 63.592 23.984 64.725 24.451"/><path fill="#586062" d="M41.635 41.746c0 0-13.582 14.244-19.733-5.853 0 0-6.151-20.097 13.582-14.244C35.484 21.649 55.217 27.501 41.635 41.746"/><path fill="none" stroke="#586062" stroke-width="8.0999" d="M41.635 41.746c0 0-13.582 14.244-19.733-5.853 0 0-6.151-20.097 13.582-14.244C35.484 21.649 55.217 27.501 41.635 41.746L41.635 41.746z"/><path fill="#F4BB2D" d="M107.768 39.749c0 0-42.313-48.958-84.052 0.209 0 0-41.74 49.166-0.384 73.224 0 0 41.355 24.059 84.052-0.208C107.384 112.974 150.081 88.707 107.768 39.749"/><path fill="none" stroke="#586062" stroke-width="8.0999" d="M107.768 39.749c0 0-42.313-48.958-84.052 0.209 0 0-41.74 49.166-0.384 73.224 0 0 41.355 24.059 84.052-0.208C107.384 112.974 150.081 88.707 107.768 39.749L107.768 39.749z"/><path fill="#586062" d="M35.388 75.177c3.355 0 6.075-2.72 6.074-6.075 0-3.354-2.719-6.074-6.075-6.074 -3.355 0-6.074 2.72-6.074 6.074C29.313 72.457 32.033 75.177 35.388 75.177"/><path fill="#586062" d="M96.137 75.176c3.355 0 6.075-2.72 6.075-6.074 0-3.355-2.72-6.076-6.075-6.076s-6.075 2.721-6.075 6.076C90.062 72.456 92.782 75.176 96.137 75.176"/><path fill="#586062" d="M66.918 101.372c0 0-1.063 12.918-2.125 0l-0.495-6.01c0 0-1.063-12.918 1.557-12.918 0 0 2.619 0 1.557 12.918L66.918 101.372"/><path fill="none" stroke="#586062" stroke-width="4.05" d="M29.813 91.66c0 7.807 16.027 14.135 35.799 14.135 19.771 0 35.798-6.329 35.798-14.137"/><path fill="#586062" d="M65.425 63.443c0.461-0.096 15.697 6.277 15.697 14.022 0 7.746-7.028 14.024-15.697 14.025 -8.669 0-15.697-6.279-15.697-14.024S65.055 63.52 65.425 63.443"/><path fill="#F4BB2D" d="M40.558 40.442c0 0-10.153 10.699-15.069-4.581 0 0-4.916-15.281 10.153-10.699C35.642 25.162 50.711 29.744 40.558 40.442"/><path fill="#586062" d="M38.247 32.936c-2.552-2.792-5.905-3.883-7.489-2.435 -1.585 1.448-0.801 4.885 1.751 7.678"/><path fill="#F4BB2D" d="M90.449 40.142c0 0-10.698-10.153 4.582-15.069 0 0 15.28-4.916 10.699 10.153C105.73 35.226 101.148 50.295 90.449 40.142"/><path fill="#586062" d="M97.955 37.831c2.793-2.552 3.883-5.905 2.435-7.49 -1.447-1.584-4.885-0.8-7.678 1.752"/><g><path fill="#58595B" d="M222.908 42.649h11.62l-22.96 57.68h-5.88 -5.74l-14-35.14 -14 35.14h-5.88 -5.74l-23.1-57.68h11.76l17.08 43.12 12.88-32.34h13.86l12.88 32.34L222.908 42.649z"/><path fill="#58595B" d="M287.726 71.489c0 15.82-12.879 28.84-28.839 28.84s-28.84-13.02-28.84-28.84c0-15.96 12.88-28.84 28.84-28.84S287.726 55.529 287.726 71.489zM276.946 71.489c0-9.94-8.12-18.06-18.06-18.06s-18.06 8.119-18.06 18.06c0 9.939 8.12 17.92 18.06 17.92S276.946 81.429 276.946 71.489z"/></g><g><path fill="#58595B" d="M304.246 100.329h-10.92v-33.32c0-13.439 10.92-24.359 24.359-24.359 7.699 0 14.42 3.5 18.9 9.1 4.479-5.6 11.34-9.1 19.039-9.1 13.439 0 24.221 10.92 24.221 24.359v33.32h-10.781v-33.32c0-7.42-6.02-13.579-13.439-13.579 -7.56 0-13.58 6.159-13.58 13.579v33.32h-10.779v-33.32c0-7.42-6.16-13.579-13.58-13.579s-13.439 6.159-13.439 13.579V100.329z"/><path fill="#58595B" d="M445.923 71.489c0 15.96-12.879 28.84-28.84 28.84 -15.82 0-28.84-12.88-28.84-28.84V13.81h10.92v35.279c4.9-4.06 11.2-6.439 17.92-6.439C433.044 42.649 445.923 55.669 445.923 71.489zM435.144 71.489c0-9.94-8.12-17.92-18.061-17.92 -9.939 0-17.92 7.979-17.92 17.92 0 9.939 7.98 18.06 17.92 18.06C427.024 89.549 435.144 81.429 435.144 71.489z"/><path fill="#58595B" d="M512.001 71.489v28.84h-10.779v-6.3c-5.041 3.92-11.2 6.3-18.061 6.3 -15.959 0-28.84-12.88-28.84-28.84s12.881-28.84 28.84-28.84C499.123 42.649 512.001 55.529 512.001 71.489zM501.222 71.489c0-9.94-8.12-18.06-18.061-18.06 -9.939 0-18.06 8.119-18.06 18.06 0 9.939 8.12 18.06 18.06 18.06C493.102 89.549 501.222 81.429 501.222 71.489z"/></g><g><path fill="#58595B" d="M532.72 42.649h18.061v10.78H532.72v46.899h-10.779V53.43h-10.779v-10.78h10.779V13.81h10.779V42.649z"/></g></g></svg>